<svg xmlns="http://www.w3.org/2000/svg" width="12" height="10" viewBox="0 0 11 8">
  <path d="M0.103125 6.94017C0.0343746 7.02495 0 7.15213 0 7.32171C0 7.51954 0.0572911 7.68205 0.171875 7.80923C0.286459 7.93641 0.423958 8 0.584375 8H10.4156C10.576 8 10.7135 7.93641 10.8281 7.80923C10.9427 7.68205 11 7.51954 11 7.32171C11 7.18039 10.9656 7.06735 10.8969 6.98256L10.8281 6.85538L6.15312 0.38154C5.94687 0.127179 5.72917 0 5.5 0C5.27083 0 5.05313 0.127179 4.84688 0.38154L0.171875 6.85538L0.103125 6.94017Z" fill="currentColor"></path>
</svg>
