<svg xmlns="http://www.w3.org/2000/svg" width="20" height="20" viewBox="0 0 20 20" fill="none">
    <path opacity="0.5" d="M19 16.4667L14.0719 11.5385C14.4281 10.958 14.7052 10.3379 14.9031 9.67812C15.101 9.0184 15.2 8.3257 15.2 7.6C15.2 6.54444 15.0021 5.56146 14.6062 4.65104C14.2104 3.72743 13.6661 2.91927 12.9734 2.22656C12.2807 1.53385 11.4726 0.989585 10.549 0.59375C9.63854 0.197915 8.65556 0 7.6 0C6.54444 0 5.56146 0.197915 4.65104 0.59375C3.72743 0.989585 2.91927 1.53385 2.22656 2.22656C1.53385 2.91927 0.989585 3.72743 0.59375 4.65104C0.197915 5.56146 0 6.54444 0 7.6C0 8.64237 0.197915 9.62534 0.59375 10.549C0.989585 11.4726 1.53385 12.2807 2.22656 12.9734C2.91927 13.6661 3.72743 14.2104 4.65104 14.6062C5.56146 15.0021 6.54444 15.2 7.6 15.2C8.3257 15.2 9.0184 15.101 9.67812 14.9031C10.3379 14.7052 10.958 14.4281 11.5385 14.0719L16.4667 19C16.6382 19.1715 16.8493 19.2573 17.1 19.2573C17.3507 19.2573 17.5618 19.1715 17.7333 19L19 17.7333C19.1715 17.5618 19.2573 17.3507 19.2573 17.1C19.2573 16.8493 19.1715 16.6382 19 16.4667ZM7.6 12.6667C6.90069 12.6667 6.24098 12.5347 5.62083 12.2708C5.01389 12.0069 4.47952 11.6441 4.01771 11.1823C3.5559 10.7205 3.19306 10.1861 2.92917 9.57917C2.66528 8.95902 2.53333 8.29931 2.53333 7.6C2.53333 6.90069 2.66528 6.24098 2.92917 5.62083C3.19306 5.01389 3.5559 4.47952 4.01771 4.01771C4.47952 3.5559 5.01389 3.19306 5.62083 2.92917C6.24098 2.66528 6.90069 2.53333 7.6 2.53333C8.29931 2.53333 8.95902 2.66528 9.57917 2.92917C10.1861 3.19306 10.7205 3.5559 11.1823 4.01771C11.6441 4.47952 12.0069 5.01389 12.2708 5.62083C12.5347 6.24098 12.6667 6.90069 12.6667 7.6C12.6667 8.29931 12.5347 8.95902 12.2708 9.57917C12.0069 10.1861 11.6441 10.7205 11.1823 11.1823C10.7205 11.6441 10.1861 12.0069 9.57917 12.2708C8.95902 12.5347 8.29931 12.6667 7.6 12.6667Z" fill="#9BA4BB"></path>
</svg>
